<?xml version="1.0" standalone="no"?>
<!DOCTYPE svg PUBLIC "-//W3C//DTD SVG 20010904//EN"
 "http://www.w3.org/TR/2001/REC-SVG-20010904/DTD/svg10.dtd">
<svg version="1.0" xmlns="http://www.w3.org/2000/svg"
 width="256.000000pt" height="256.000000pt" viewBox="0 0 256.000000 256.000000"
 preserveAspectRatio="xMidYMid meet">
<metadata>
Created by potrace 1.14, written by Peter Selinger 2001-2017
</metadata>
<g transform="translate(0.000000,256.000000) scale(0.100000,-0.100000)"
fill="#000000" stroke="none">
<path d="M1431 1321 c-50 -50 0 -159 56 -123 23 15 34 63 23 98 -7 19 -15 34
-20 34 -5 0 -15 3 -23 6 -9 3 -25 -4 -36 -15z"/>
<path d="M570 1271 c-26 -50 1 -121 46 -121 19 0 28 8 40 35 12 31 12 39 0 70
-12 29 -20 35 -45 35 -20 0 -34 -7 -41 -19z"/>
<path d="M1115 894 c-116 -7 -250 -13 -298 -13 -65 -1 -89 -5 -93 -15 -11 -28
17 -94 57 -136 134 -138 412 -142 564 -9 42 37 85 118 85 162 0 32 18 31 -315
11z"/>
</g>
</svg>
