<?xml version="1.0" standalone="no"?>
<!DOCTYPE svg PUBLIC "-//W3C//DTD SVG 20010904//EN"
 "http://www.w3.org/TR/2001/REC-SVG-20010904/DTD/svg10.dtd">
<svg version="1.0" xmlns="http://www.w3.org/2000/svg"
 width="768.000000pt" height="768.000000pt" viewBox="0 0 768.000000 768.000000"
 preserveAspectRatio="xMidYMid meet">
<metadata>
Created by potrace 1.14, written by Peter Selinger 2001-2017
</metadata>
<g transform="translate(0.000000,768.000000) scale(0.100000,-0.100000)"
fill="#000000" stroke="none">
<path d="M5278 6471 c-578 -578 -1054 -1051 -1058 -1051 -3 0 -239 232 -522
515 -283 283 -518 511 -522 508 -3 -3 -6 -227 -7 -497 0 -270 -1 -499 -1 -509
-1 -15 -8 -18 -35 -15 -18 2 -33 0 -33 -4 0 -5 -8 -4 -19 1 -10 6 -20 8 -23 6
-4 -4 -362 -6 -643 -4 -60 1 -114 0 -120 -1 -5 -1 -12 -1 -15 0 -16 6 -52 6
-56 -1 -2 -5 -11 -6 -20 -2 -22 8 -1264 9 -1264 1 0 -4 -7 -5 -16 -1 -24 9
-544 9 -544 0 0 -5 -5 -5 -11 -1 -15 9 -309 11 -309 2 0 -3 -9 -4 -20 -1 -11
3 -20 2 -20 -1 0 -4 467 -474 1038 -1046 570 -571 1278 -1281 1572 -1577 l535
-538 0 -1021 c0 -562 3 -1032 6 -1045 4 -13 7 -18 8 -10 1 8 3 12 6 9 3 -3
235 224 517 504 281 279 514 508 517 508 9 0 2102 2094 2111 2111 4 8 7 652 6
1432 0 780 2 1425 5 1435 6 16 52 17 652 17 355 0 649 3 653 7 7 8 -1266 1291
-1299 1309 -15 9 -171 -143 -1069 -1040z"/>
</g>
</svg>
