<?xml version="1.0" standalone="no"?>
<!DOCTYPE svg PUBLIC "-//W3C//DTD SVG 20010904//EN"
 "http://www.w3.org/TR/2001/REC-SVG-20010904/DTD/svg10.dtd">
<svg version="1.0" xmlns="http://www.w3.org/2000/svg"
 width="500.000000pt" height="500.000000pt" viewBox="0 0 500.000000 500.000000"
 preserveAspectRatio="xMidYMid meet">
<metadata>
Created by potrace 1.14, written by Peter Selinger 2001-2017
</metadata>
<g transform="translate(0.000000,500.000000) scale(0.100000,-0.100000)"
fill="#000000" stroke="none">
<path d="M2490 4233 c0 -51 -69 -510 -96 -635 -159 -756 -435 -948 -1551
-1079 -57 -7 -103 -16 -103 -21 0 -4 11 -8 25 -8 42 0 387 -49 532 -75 485
-89 731 -212 890 -445 129 -190 214 -506 284 -1062 13 -97 26 -175 31 -172 4
3 8 21 8 39 0 51 56 434 86 586 95 490 248 741 537 883 138 67 222 95 425 140
145 33 484 86 645 102 37 4 64 10 60 14 -4 4 -71 15 -148 24 -340 40 -692 112
-857 175 -379 147 -548 379 -653 901 -28 137 -69 402 -86 553 -7 59 -16 107
-21 107 -4 0 -8 -12 -8 -27z"/>
</g>
</svg>
