<?xml version="1.0" standalone="no"?>
<!DOCTYPE svg PUBLIC "-//W3C//DTD SVG 20010904//EN"
 "http://www.w3.org/TR/2001/REC-SVG-20010904/DTD/svg10.dtd">
<svg version="1.0" xmlns="http://www.w3.org/2000/svg"
 width="1772.000000pt" height="1772.000000pt" viewBox="0 0 1772.000000 1772.000000"
 preserveAspectRatio="xMidYMid meet">
<metadata>
Created by potrace 1.14, written by Peter Selinger 2001-2017
</metadata>
<g transform="translate(0.000000,1772.000000) scale(0.100000,-0.100000)"
fill="#000000" stroke="none">
<path d="M4202 15621 c-6 -3 -31 -6 -56 -5 -36 1 -46 -2 -47 -15 0 -10 -2 -11
-6 -3 -2 6 -12 12 -22 12 -9 0 -23 -6 -29 -12 -7 -7 -23 -14 -35 -15 -46 -3
-97 -22 -97 -35 0 -5 -7 -7 -16 -4 -17 6 -37 -5 -139 -80 -78 -57 -215 -190
-215 -209 0 -7 -7 -18 -15 -25 -8 -7 -15 -20 -15 -30 0 -9 -9 -25 -20 -35 -11
-10 -20 -26 -20 -36 0 -10 -8 -33 -18 -51 -10 -18 -27 -67 -36 -108 -10 -41
-22 -85 -27 -98 -5 -13 -9 -43 -9 -67 0 -25 -7 -62 -15 -82 -8 -21 -14 -54
-13 -73 0 -19 0 -101 -2 -183 -2 -101 1 -151 9 -161 8 -10 9 -16 1 -21 -12 -7
-14 -55 -2 -55 4 0 8 -19 8 -42 0 -24 6 -86 13 -138 8 -52 13 -107 13 -122 -1
-16 3 -28 8 -28 5 0 9 -8 8 -17 0 -49 16 -129 29 -140 9 -7 11 -13 4 -18 -15
-9 -14 -45 2 -51 8 -2 14 -19 15 -37 2 -57 8 -89 19 -95 6 -4 10 -22 9 -40 -1
-17 1 -32 6 -32 4 0 8 -15 8 -33 0 -18 5 -38 12 -45 6 -6 13 -22 14 -34 5 -48
17 -83 31 -95 9 -7 11 -13 4 -18 -15 -9 -14 -31 2 -47 7 -7 13 -22 14 -33 1
-23 25 -87 35 -95 4 -3 7 -14 6 -25 0 -23 23 -87 36 -96 4 -4 5 -15 2 -26 -3
-10 1 -28 9 -39 8 -10 15 -27 15 -36 0 -10 5 -18 11 -18 6 0 9 -10 8 -22 -2
-13 5 -35 15 -50 10 -15 20 -45 23 -67 3 -23 12 -46 19 -52 8 -6 14 -20 14
-30 0 -10 5 -21 10 -24 6 -4 8 -11 4 -16 -3 -5 7 -35 22 -67 15 -31 27 -65 25
-74 -1 -10 2 -18 7 -18 14 0 23 -42 11 -56 -5 -6 -6 -19 -3 -28 4 -11 2 -16
-7 -14 -7 2 -15 -7 -17 -18 -2 -12 -16 -34 -33 -49 -16 -16 -29 -32 -29 -36 0
-4 -18 -35 -40 -68 -22 -33 -40 -62 -40 -64 0 -3 -17 -31 -39 -63 -39 -61 -86
-143 -153 -274 -21 -41 -42 -77 -46 -80 -4 -3 -7 -9 -7 -15 0 -5 -27 -64 -59
-130 -77 -158 -166 -355 -160 -355 3 0 -3 -17 -14 -37 -24 -47 -62 -145 -62
-160 0 -6 -6 -24 -14 -40 -8 -15 -35 -93 -61 -173 -25 -80 -52 -166 -61 -192
-60 -190 -140 -562 -179 -838 -47 -329 -54 -425 -59 -785 -4 -272 14 -697 32
-781 11 -49 34 -239 34 -281 0 -13 4 -23 8 -23 4 0 10 -33 14 -74 4 -41 13
-96 21 -123 7 -26 17 -70 20 -98 4 -27 13 -70 21 -95 7 -25 18 -65 23 -90 14
-74 52 -214 62 -232 5 -10 9 -24 9 -32 0 -15 42 -156 65 -216 7 -19 25 -69 39
-110 15 -41 36 -94 47 -118 10 -23 19 -49 19 -57 0 -8 15 -47 34 -87 18 -40
46 -102 61 -138 37 -86 132 -288 150 -320 8 -14 29 -54 46 -90 37 -79 33 -72
92 -159 26 -39 47 -77 47 -84 0 -8 9 -26 20 -40 11 -14 20 -28 20 -31 0 -7 93
-144 161 -236 26 -36 65 -89 86 -118 21 -29 56 -76 78 -105 22 -28 60 -79 85
-113 25 -34 76 -97 114 -140 37 -44 72 -89 77 -101 5 -13 15 -23 22 -23 7 0
21 -16 30 -35 15 -32 17 -80 17 -420 l0 -384 419 -3 c403 -3 420 -4 441 -23
12 -11 24 -18 27 -16 3 2 27 -15 54 -38 26 -22 51 -41 54 -41 4 0 33 -20 65
-45 32 -25 61 -45 65 -45 4 0 25 -15 48 -33 23 -18 59 -40 80 -50 20 -9 37
-21 37 -27 0 -5 7 -10 15 -10 8 0 36 -15 62 -34 27 -18 82 -53 123 -76 41 -23
93 -53 115 -66 78 -47 526 -264 545 -264 5 0 18 -4 28 -9 50 -28 125 -61 137
-61 8 0 29 -6 47 -14 18 -8 75 -29 126 -47 50 -19 92 -37 92 -41 0 -5 11 -6
25 -2 15 4 25 2 25 -4 0 -6 17 -14 38 -18 20 -4 43 -11 50 -17 7 -5 22 -11 35
-13 12 -1 38 -8 57 -14 54 -18 220 -61 275 -72 28 -5 54 -14 60 -19 5 -5 19
-9 32 -9 13 0 59 -9 102 -20 43 -12 83 -20 87 -19 5 1 11 0 14 -1 10 -4 145
-31 175 -34 76 -10 333 -43 395 -51 19 -3 86 -8 148 -11 62 -4 115 -11 118
-16 3 -5 11 -5 18 1 8 7 24 7 43 2 17 -5 36 -5 44 -1 7 5 18 6 24 2 17 -11
409 -11 416 0 4 6 13 7 20 2 19 -12 58 -14 64 -3 5 8 70 3 87 -7 4 -2 9 0 13
6 3 5 20 10 38 9 91 -1 137 2 142 11 4 6 13 7 22 1 19 -10 53 -3 53 11 0 6 6
5 15 -2 8 -6 19 -9 24 -5 6 3 35 8 63 10 29 1 61 6 71 10 9 4 28 5 42 3 15 -3
26 0 30 10 4 11 8 12 19 3 8 -7 17 -8 20 -3 3 5 21 8 41 6 19 -1 35 2 35 8 0
5 9 6 20 3 12 -4 27 -1 35 5 8 7 26 10 39 6 17 -4 26 -1 30 10 5 13 9 14 20 5
9 -8 16 -8 20 -2 4 6 13 8 20 5 7 -3 17 3 20 13 7 17 8 17 20 0 13 -16 14 -16
37 2 16 13 34 17 52 14 15 -3 33 0 41 6 8 7 25 9 40 5 20 -5 26 -2 26 11 0 13
6 15 29 10 16 -3 32 -2 35 3 3 5 19 9 37 10 17 0 37 8 44 18 11 16 13 16 22
-1 10 -17 12 -16 32 4 14 14 29 20 41 16 12 -4 23 1 30 12 7 12 13 14 16 6 6
-13 31 -7 55 14 9 7 24 11 33 7 10 -4 25 1 35 10 10 9 25 14 34 10 11 -4 19 0
23 10 4 11 13 15 26 10 12 -3 27 1 39 12 16 15 24 16 39 6 11 -6 22 -8 25 -3
3 5 -1 12 -7 14 -8 3 -6 6 5 6 25 1 28 2 78 28 26 13 58 23 72 23 14 0 29 5
32 10 11 17 43 11 50 -10 3 -11 13 -20 22 -20 8 0 31 -13 50 -30 18 -16 40
-30 49 -30 9 0 14 -7 12 -17 -2 -12 3 -17 14 -15 9 1 28 -9 42 -23 14 -14 34
-25 46 -25 13 0 20 -7 20 -20 0 -13 5 -18 15 -13 10 3 24 -5 38 -21 13 -14 32
-26 44 -26 12 0 23 -8 26 -19 3 -11 17 -22 36 -26 18 -4 31 -13 31 -21 0 -9 7
-14 19 -12 11 2 31 -8 46 -22 14 -14 34 -25 43 -25 9 0 17 -7 17 -15 0 -8 9
-16 20 -18 11 -2 32 -15 47 -29 14 -14 31 -22 37 -19 6 4 23 -4 38 -18 17 -16
34 -24 45 -20 12 3 18 0 18 -9 0 -18 47 -50 60 -42 5 3 14 -4 20 -15 6 -11 14
-19 18 -19 19 3 33 -3 51 -22 11 -12 25 -18 31 -14 7 4 24 -5 40 -20 16 -15
33 -24 39 -21 6 4 23 -4 38 -19 16 -14 34 -23 41 -20 7 3 25 -6 40 -20 16 -15
34 -23 44 -19 10 3 18 2 18 -3 0 -12 53 -41 66 -36 6 2 19 -6 29 -17 10 -11
27 -20 38 -20 10 0 32 -9 47 -20 16 -11 32 -19 37 -18 13 3 53 -13 53 -21 0
-5 19 -11 41 -15 23 -4 51 -13 62 -21 12 -8 29 -15 39 -15 9 0 29 -5 45 -12
15 -6 34 -10 40 -9 7 1 23 -5 35 -12 13 -8 41 -18 63 -22 22 -4 42 -11 45 -15
3 -5 29 -11 58 -14 29 -3 57 -8 62 -11 9 -6 73 -19 145 -30 17 -2 112 -7 213
-10 131 -4 182 -3 182 5 0 8 11 9 31 5 22 -5 36 -2 49 10 14 13 23 15 32 7 9
-7 19 -6 32 4 11 8 30 14 43 14 13 0 23 5 23 10 0 6 7 10 16 10 9 0 33 10 53
22 63 38 271 209 271 222 0 8 9 16 20 19 11 3 20 14 20 25 0 10 9 27 20 37 11
10 20 26 20 35 0 9 9 25 20 35 13 12 18 25 14 40 -3 14 0 26 8 32 18 11 39 59
32 76 -2 7 5 24 16 37 11 13 18 30 16 37 -3 8 1 39 9 71 23 85 36 228 37 386
1 163 -11 356 -22 356 -4 0 -4 16 0 35 4 20 4 35 -2 37 -5 2 -11 39 -14 83 -4
44 -10 85 -15 92 -6 6 -7 22 -4 36 5 17 2 26 -9 30 -11 5 -13 13 -7 35 6 19 4
34 -5 47 -7 10 -11 22 -8 27 3 5 -2 20 -11 34 -9 14 -13 33 -10 44 4 11 2 20
-3 20 -5 0 -8 16 -7 36 0 19 -5 40 -13 46 -8 7 -11 21 -7 36 4 15 1 28 -6 33
-12 7 -19 40 -20 92 0 15 -6 30 -14 34 -8 3 -15 18 -15 33 0 16 -4 31 -9 35
-6 3 -8 15 -6 27 3 11 -5 32 -15 46 -14 18 -17 28 -10 37 8 9 6 14 -4 18 -9 4
-12 14 -9 27 4 14 -2 29 -16 44 -15 16 -19 26 -12 31 8 4 7 13 -3 27 -8 11
-12 27 -9 36 4 8 -2 21 -12 28 -18 13 -25 41 -26 96 0 17 -6 28 -16 30 -9 2
-18 15 -20 31 -1 15 -5 39 -6 55 -2 15 -11 28 -20 30 -12 3 -15 10 -11 26 3
14 -1 27 -11 36 -9 7 -13 20 -10 31 4 12 1 21 -10 25 -9 4 -15 14 -13 24 2 9
-3 24 -10 33 -7 8 -14 25 -15 36 -1 12 -5 21 -9 21 -4 0 -8 14 -8 30 0 21 -5
30 -16 30 -13 0 -15 6 -10 28 4 15 10 40 13 56 3 16 14 31 24 33 11 3 19 13
19 23 0 10 11 25 25 34 14 9 25 25 25 35 0 10 6 24 14 30 8 6 19 25 26 41 7
17 19 30 26 30 8 0 14 10 14 23 0 13 11 34 25 47 13 12 22 27 19 32 -4 5 6 22
20 37 16 16 24 34 21 43 -4 10 1 17 14 21 14 3 21 13 21 31 0 15 8 31 20 38
11 7 20 21 20 31 0 10 9 28 20 40 11 12 19 28 18 37 -2 9 7 27 20 40 12 13 22
32 22 42 0 10 9 28 20 40 11 12 20 29 20 38 0 8 9 23 20 33 11 9 20 29 20 45
0 16 9 37 20 47 11 10 18 26 15 35 -3 10 5 26 20 40 17 16 23 30 19 43 -4 12
2 27 16 42 12 13 19 29 15 35 -4 6 3 22 15 35 13 14 20 31 16 40 -3 9 3 25 14
37 11 12 20 29 20 38 0 9 9 35 20 58 11 22 20 51 20 62 0 12 7 28 15 36 8 9
15 26 15 39 0 14 9 39 20 57 11 18 20 43 20 54 0 12 7 35 15 50 8 16 15 37 15
47 0 10 7 31 15 46 8 16 11 31 8 35 -4 3 -2 16 4 29 23 49 33 79 33 98 0 12 6
35 14 52 8 18 17 50 21 72 10 71 12 80 24 109 7 16 14 50 17 75 3 25 9 55 14
66 9 21 16 59 28 160 4 33 12 67 17 75 5 8 13 47 18 85 4 39 10 88 12 110 3
22 9 63 15 90 9 46 16 131 25 307 2 36 6 76 10 88 4 12 1 27 -5 35 -9 11 -9
15 -1 15 7 0 11 29 12 83 2 288 1 436 -3 444 -3 4 -4 48 -3 96 1 48 -3 91 -7
94 -5 2 -6 18 -3 34 4 16 3 34 0 40 -4 6 -9 39 -10 73 -3 84 -16 188 -25 205
-5 8 -4 26 1 39 6 17 6 29 -3 39 -6 8 -13 41 -14 74 -2 32 -8 67 -13 78 -6 10
-8 29 -6 42 3 13 1 26 -4 29 -5 3 -11 25 -13 50 -2 25 -7 51 -12 58 -4 6 -4
17 -1 22 4 6 1 17 -5 25 -7 9 -9 26 -6 40 4 17 2 27 -7 31 -8 3 -14 17 -15 32
-2 62 -10 99 -26 124 -12 18 -14 28 -6 33 8 5 8 11 -1 21 -7 8 -12 29 -11 45
0 23 -5 33 -18 36 -15 4 -17 9 -10 23 6 12 5 23 -4 35 -7 10 -11 27 -8 37 2
10 -1 25 -8 33 -7 8 -10 25 -6 40 5 19 2 25 -10 25 -12 0 -15 6 -10 24 4 17 1
26 -10 30 -12 4 -14 14 -9 36 5 24 3 30 -10 30 -10 0 -15 7 -14 18 2 9 -3 27
-10 40 -6 12 -9 31 -6 41 3 12 0 21 -10 25 -8 3 -15 16 -15 29 0 14 -7 30 -15
37 -8 7 -14 18 -14 24 2 13 -6 39 -29 85 -9 19 -16 39 -14 44 1 4 -9 31 -23
58 -14 28 -25 56 -25 63 0 6 -15 42 -34 78 -19 37 -40 84 -47 105 -6 21 -23
56 -37 77 -13 22 -25 45 -26 52 -1 8 -5 17 -9 20 -4 4 -7 14 -7 21 0 8 -20 45
-45 84 -25 38 -43 74 -40 79 3 5 -19 48 -50 94 -112 171 -134 234 -82 237 12
1 40 3 62 5 75 5 580 34 715 41 143 7 138 20 -9 22 -41 0 -78 5 -81 11 -4 7
-68 13 -161 15 -162 4 -581 31 -636 40 -35 6 -81 56 -148 160 -58 88 -228 314
-272 359 -21 22 -47 54 -58 72 -11 17 -64 78 -119 135 -54 57 -110 120 -125
139 -14 19 -43 52 -64 73 -20 21 -37 42 -37 47 0 5 -13 17 -30 27 -16 9 -30
21 -30 25 0 4 -4 8 -8 8 -12 0 -129 118 -136 136 -3 8 -13 14 -22 14 -9 0 -49
31 -88 69 -73 71 -194 171 -206 171 -4 0 -10 9 -13 21 -3 12 -10 18 -16 14 -6
-3 -34 17 -62 45 -27 28 -54 48 -60 45 -5 -3 -32 17 -61 44 -29 28 -58 51 -63
51 -11 0 -27 11 -85 58 -15 12 -32 22 -37 22 -6 0 -18 9 -28 20 -10 11 -23 20
-30 20 -7 0 -23 10 -36 23 -14 12 -29 22 -34 22 -12 0 -93 53 -117 78 -10 9
-27 17 -38 17 -10 0 -23 6 -27 13 -4 7 -35 26 -68 42 -33 15 -64 34 -68 42 -4
7 -16 13 -26 13 -10 0 -26 9 -36 20 -10 11 -27 20 -38 20 -10 0 -32 10 -47 23
-15 12 -35 27 -44 32 -12 8 -19 43 -31 150 -19 178 -45 587 -46 713 0 53 -5
133 -11 177 -6 44 -10 107 -9 141 1 48 -2 61 -14 61 -18 0 -17 3 -22 -77 -42
-751 -63 -1054 -76 -1066 -4 -4 -70 23 -150 62 -16 8 -35 14 -43 14 -7 0 -28
9 -46 19 -17 11 -35 18 -40 15 -4 -3 -15 2 -24 10 -8 9 -22 16 -30 16 -24 0
-28 2 -56 21 -14 10 -38 19 -52 19 -14 0 -26 5 -26 11 0 5 -5 7 -10 4 -6 -3
-17 1 -26 9 -14 15 -34 20 -61 17 -6 -1 -14 3 -18 9 -3 5 -16 10 -28 10 -13 0
-40 9 -62 20 -22 11 -47 20 -57 20 -9 0 -19 4 -22 9 -6 10 -74 26 -94 22 -8
-1 -21 4 -29 11 -16 13 -66 26 -208 54 -44 9 -92 22 -107 30 -14 8 -46 15 -70
15 -23 1 -48 6 -54 11 -16 12 -173 40 -293 53 -24 2 -51 7 -60 11 -34 14 -425
56 -508 54 -35 -1 -64 3 -68 10 -5 8 -10 8 -20 0 -9 -7 -26 -8 -59 0 -33 7
-53 7 -67 -1 -14 -7 -24 -7 -32 0 -15 11 -156 9 -176 -3 -8 -5 -16 -4 -20 2
-8 13 -162 12 -179 -1 -10 -8 -16 -7 -21 1 -4 7 -14 10 -22 7 -12 -4 -131 -15
-166 -15 -29 0 -41 0 -103 -5 -36 -3 -87 -7 -115 -11 -27 -3 -62 -6 -77 -6
-16 0 -28 -4 -28 -8 0 -4 -19 -8 -42 -9 -76 -2 -113 -6 -123 -12 -5 -4 -23 -5
-40 -4 -16 1 -42 -3 -57 -10 -20 -9 -29 -10 -38 -1 -8 8 -14 7 -21 -6 -6 -12
-19 -15 -41 -13 -17 3 -37 0 -45 -6 -7 -6 -25 -9 -39 -6 -15 3 -28 0 -30 -8
-3 -7 -19 -12 -37 -10 -18 1 -38 -3 -44 -8 -7 -5 -20 -6 -29 -3 -10 4 -25 -1
-35 -10 -15 -13 -22 -14 -33 -5 -11 9 -17 8 -29 -4 -9 -8 -29 -15 -46 -15 -17
0 -31 -4 -31 -10 0 -5 -15 -7 -34 -5 -28 4 -35 1 -39 -17 -5 -18 -9 -19 -21
-9 -12 10 -20 9 -40 -5 -22 -13 -29 -14 -42 -4 -13 11 -16 10 -21 -9 -4 -16
-8 -19 -14 -10 -6 10 -10 10 -23 0 -8 -7 -20 -10 -26 -6 -5 3 -10 1 -10 -4 0
-6 -12 -11 -28 -11 -15 0 -38 -7 -50 -16 -12 -8 -26 -13 -31 -10 -5 3 -14 -1
-21 -9 -6 -7 -18 -11 -26 -8 -8 3 -25 -2 -39 -11 -13 -9 -31 -13 -39 -10 -9 3
-16 1 -16 -5 0 -6 -11 -11 -24 -11 -13 0 -29 -6 -35 -14 -11 -13 -52 -24 -122
-32 -26 -3 -41 1 -50 13 -8 9 -13 19 -11 22 1 3 -7 7 -18 7 -12 1 -28 10 -35
22 -8 11 -26 23 -40 26 -14 4 -25 13 -25 21 0 8 -8 15 -18 15 -10 0 -41 20
-68 45 -27 25 -53 43 -59 42 -5 -2 -25 9 -43 25 -18 16 -37 26 -43 23 -5 -4
-9 -2 -9 3 0 11 -102 78 -113 74 -5 -1 -18 9 -29 23 -11 14 -25 25 -32 25 -7
0 -24 8 -37 19 -13 10 -47 31 -76 45 -28 15 -57 34 -64 42 -6 8 -19 14 -29 14
-10 0 -23 7 -30 16 -8 8 -27 22 -44 30 -17 8 -55 27 -83 44 -29 16 -53 27 -53
24 0 -3 -14 4 -30 16 -17 12 -37 23 -44 24 -7 1 -26 10 -41 20 -15 10 -34 19
-41 20 -7 1 -21 10 -32 19 -10 9 -29 17 -41 17 -12 0 -31 9 -43 20 -12 11 -32
20 -45 20 -13 0 -23 4 -23 9 0 5 -15 14 -32 21 -18 6 -49 20 -69 31 -20 10
-39 16 -42 13 -3 -4 -19 3 -34 14 -16 11 -42 21 -58 23 -17 2 -37 9 -46 16 -9
8 -31 15 -48 18 -18 2 -38 8 -44 13 -7 5 -25 12 -42 15 -69 14 -141 33 -153
41 -8 4 -67 19 -131 31 -118 23 -406 41 -429 26z m68 -107 c25 0 50 3 57 8 6
5 14 5 17 0 3 -6 34 -10 68 -11 35 0 79 -3 98 -6 79 -11 147 -23 175 -33 17
-6 50 -15 75 -22 25 -6 63 -15 85 -21 21 -6 44 -14 51 -19 6 -6 13 -8 16 -5 3
3 22 -2 44 -11 21 -10 52 -19 68 -21 16 -2 37 -10 47 -19 9 -8 27 -16 40 -17
13 -1 35 -10 49 -19 14 -9 39 -19 57 -23 17 -3 34 -13 37 -21 4 -10 13 -13 24
-10 12 4 28 -3 44 -19 14 -14 32 -23 40 -20 7 3 23 -4 35 -15 12 -11 31 -20
41 -20 10 0 28 -9 40 -20 12 -11 30 -20 41 -20 30 0 51 -11 51 -26 0 -8 10
-14 25 -14 14 0 34 -9 45 -20 11 -11 28 -20 39 -20 10 0 24 -7 31 -15 12 -14
34 -27 172 -96 26 -13 48 -30 48 -36 0 -7 7 -13 17 -13 9 0 31 -11 49 -25 18
-14 40 -25 48 -25 9 0 16 -5 16 -11 0 -5 14 -15 30 -21 17 -5 35 -19 41 -30 6
-11 16 -17 24 -14 7 2 23 -6 36 -20 12 -13 30 -24 40 -24 9 0 19 -10 22 -21 4
-15 11 -20 22 -15 11 4 25 -4 42 -25 15 -18 32 -28 40 -25 9 4 17 -2 20 -15 3
-11 11 -18 18 -15 7 2 25 -9 41 -25 16 -16 34 -27 41 -24 8 3 18 -6 23 -21 6
-15 15 -22 21 -18 12 7 31 -15 23 -28 -3 -4 -13 -8 -24 -8 -10 0 -21 -8 -24
-17 -5 -13 -9 -14 -15 -5 -6 10 -17 8 -47 -9 -21 -13 -41 -26 -44 -30 -3 -3
-22 -9 -44 -13 -21 -4 -60 -23 -87 -41 -26 -19 -55 -32 -63 -29 -8 3 -17 1
-21 -5 -3 -6 -14 -11 -23 -11 -9 0 -35 -16 -57 -35 -22 -19 -47 -35 -57 -35
-9 0 -20 -5 -23 -10 -4 -6 -11 -8 -16 -4 -5 3 -50 -21 -100 -53 -50 -32 -96
-58 -102 -58 -21 0 -80 -36 -172 -105 -95 -71 -135 -96 -148 -92 -17 5 -225
-146 -475 -346 -101 -80 -142 -119 -138 -129 4 -11 2 -13 -9 -9 -9 3 -19 -3
-25 -14 -6 -11 -16 -19 -22 -17 -6 1 -17 -9 -25 -23 -7 -15 -20 -24 -29 -22
-12 3 -15 -1 -11 -12 5 -12 -16 -34 -71 -79 -108 -88 -172 -148 -172 -162 0
-12 -79 -90 -133 -132 -16 -12 -30 -30 -32 -40 -1 -10 -8 -17 -14 -15 -6 1
-11 -6 -11 -15 0 -10 -29 -44 -65 -76 -36 -32 -71 -73 -79 -91 -7 -17 -25 -40
-40 -49 -14 -10 -26 -24 -26 -32 0 -8 -9 -15 -20 -15 -21 0 -27 -15 -10 -25 6
-4 -12 -28 -42 -57 -29 -28 -53 -59 -53 -70 0 -29 -29 -46 -50 -28 -9 7 -14
19 -11 26 3 7 1 16 -4 19 -6 4 -10 15 -10 26 0 11 -7 31 -16 44 -9 13 -13 28
-10 33 3 6 -1 15 -9 22 -8 7 -12 17 -9 22 3 5 -1 17 -10 27 -8 9 -17 26 -19
37 -1 10 -6 24 -10 31 -4 6 -4 18 -1 27 4 10 0 18 -10 22 -9 4 -16 18 -16 34
0 16 -5 32 -11 36 -6 3 -8 15 -6 26 3 11 0 21 -9 25 -8 3 -14 18 -14 33 0 16
-4 32 -10 35 -5 3 -10 19 -10 34 0 16 -7 34 -15 41 -9 7 -13 21 -10 31 3 9 1
20 -5 24 -5 3 -10 20 -10 36 0 18 -6 32 -16 36 -11 4 -14 13 -10 29 4 15 2 24
-5 24 -7 0 -10 12 -7 31 3 22 0 33 -13 40 -13 6 -17 18 -14 39 2 17 -1 30 -7
30 -6 0 -8 10 -4 24 4 15 0 28 -10 37 -11 9 -14 22 -10 41 3 15 1 28 -4 28 -6
0 -10 15 -10 34 0 18 -6 39 -14 45 -7 6 -11 22 -8 36 2 14 -1 31 -7 39 -6 7
-9 21 -5 30 3 9 1 23 -6 31 -6 7 -10 25 -8 38 1 13 -3 32 -11 40 -8 10 -11 27
-7 42 4 15 2 25 -4 25 -7 0 -9 8 -5 19 3 11 2 22 -2 24 -4 3 -8 33 -8 66 1 34
-3 61 -8 61 -5 0 -7 18 -4 40 3 21 1 40 -4 42 -17 6 -25 322 -13 498 3 47 5
94 5 105 0 10 5 25 10 32 6 6 13 36 16 65 2 29 11 63 19 76 8 12 12 27 9 32
-3 6 1 20 9 32 9 12 16 29 16 38 0 34 88 185 137 235 56 57 175 149 213 165
17 7 30 16 30 21 0 5 13 9 29 9 17 0 33 5 36 11 4 6 13 8 20 5 8 -3 19 1 25 9
7 8 24 12 40 10 16 -2 34 3 40 10 9 11 16 12 31 2 15 -9 22 -8 36 5 9 10 21
14 27 10 6 -4 31 -7 56 -8z m4477 -659 c17 6 204 6 378 0 114 -4 291 -19 480
-41 72 -9 141 -17 155 -18 74 -8 198 -29 215 -36 11 -5 38 -11 60 -14 100 -12
141 -19 152 -28 6 -5 33 -12 60 -14 26 -3 58 -12 71 -21 13 -8 30 -12 39 -9 8
3 20 3 26 -1 15 -9 33 -14 82 -20 22 -3 49 -12 60 -19 11 -8 29 -14 40 -14 11
-1 38 -8 60 -16 22 -8 54 -17 70 -19 17 -3 35 -12 42 -20 8 -11 13 -13 18 -5
5 8 12 7 25 -5 10 -9 21 -15 26 -13 5 1 20 -4 33 -11 12 -7 31 -11 41 -8 11 3
26 -4 36 -15 12 -13 26 -17 41 -13 13 3 23 2 23 -2 0 -10 46 -31 87 -39 17 -3
34 -12 37 -20 3 -7 12 -11 20 -8 8 3 17 0 21 -5 3 -6 11 -9 16 -6 5 4 21 -3
35 -14 15 -12 33 -21 40 -21 7 0 28 -9 46 -19 17 -11 35 -18 40 -15 5 3 22 -6
38 -19 18 -16 37 -23 49 -20 13 3 25 -3 35 -20 16 -23 15 -35 -9 -178 -42
-259 -98 -435 -205 -651 -222 -447 -582 -803 -1027 -1019 -126 -61 -283 -120
-383 -144 -41 -10 -97 -24 -125 -33 -27 -8 -84 -18 -125 -22 -41 -4 -120 -14
-175 -23 -123 -20 -555 -54 -885 -70 -183 -9 -244 -16 -242 -25 1 -6 -2 -12
-8 -12 -5 0 -10 7 -10 15 0 12 -17 15 -97 13 -54 -1 -81 -3 -60 -5 49 -5 44
-26 -9 -35 -21 -4 12 -5 74 -4 62 1 115 -1 118 -6 3 -4 62 -8 133 -8 70 0 237
-9 371 -20 135 -10 299 -22 365 -25 128 -6 161 -9 185 -18 8 -4 65 -11 125
-17 107 -10 346 -54 368 -67 6 -4 34 -12 61 -19 72 -18 169 -53 180 -64 6 -6
15 -10 22 -10 26 0 210 -94 333 -170 157 -97 405 -313 518 -453 54 -65 150
-197 178 -243 40 -67 135 -236 135 -241 0 -2 9 -24 20 -48 129 -282 184 -562
224 -1140 26 -364 33 -500 35 -677 1 -31 6 -40 30 -53 27 -14 30 -13 35 3 3 9
8 123 11 252 2 129 7 262 10 295 9 88 13 139 20 245 27 388 75 684 146 885 29
82 95 236 123 288 13 23 38 69 56 102 86 156 235 348 377 486 213 207 420 347
673 456 19 8 46 21 60 28 14 7 66 25 115 39 50 15 97 31 105 35 8 4 56 17 105
29 214 49 534 85 580 64 26 -12 108 -130 127 -183 10 -30 72 -136 96 -165 5
-6 16 -28 23 -50 8 -21 16 -41 19 -44 3 -3 11 -16 18 -30 7 -14 21 -38 31 -55
11 -16 20 -37 20 -46 1 -9 8 -19 16 -23 8 -3 12 -12 9 -19 -3 -8 8 -36 25 -62
17 -26 28 -52 24 -58 -3 -6 2 -16 12 -23 10 -8 16 -17 12 -20 -4 -4 3 -22 14
-40 11 -19 18 -38 14 -44 -3 -5 1 -10 9 -10 10 0 16 -9 16 -25 0 -14 10 -45
22 -68 12 -23 21 -50 19 -59 -1 -11 4 -18 14 -18 11 0 15 -5 12 -14 -3 -7 1
-25 8 -40 8 -15 11 -33 8 -42 -4 -10 2 -17 16 -21 15 -4 19 -9 12 -17 -7 -8
-5 -21 4 -39 8 -15 12 -34 9 -42 -4 -9 1 -18 11 -21 9 -4 14 -12 11 -19 -2 -7
1 -24 8 -37 8 -14 16 -38 19 -54 19 -90 33 -143 43 -155 7 -8 12 -27 12 -43 0
-15 5 -32 12 -36 7 -4 10 -15 7 -24 -3 -8 0 -22 8 -30 8 -8 12 -22 9 -30 -3
-9 0 -23 7 -32 7 -9 12 -31 11 -49 -2 -18 2 -36 8 -40 6 -4 8 -15 5 -26 -4
-12 -2 -19 8 -19 9 0 14 -12 14 -37 1 -60 9 -112 21 -126 6 -7 9 -23 5 -35 -3
-12 0 -29 7 -37 7 -9 10 -25 6 -41 -4 -15 -2 -32 5 -40 6 -8 9 -27 6 -44 -5
-21 -2 -32 9 -38 13 -7 14 -13 4 -31 -9 -18 -9 -26 2 -38 7 -9 13 -30 14 -47
3 -74 16 -200 20 -208 3 -5 7 -36 9 -71 3 -34 7 -98 10 -142 15 -205 1 -921
-19 -953 -2 -4 -12 -83 -21 -177 -9 -93 -20 -176 -25 -185 -4 -8 -10 -40 -13
-70 -3 -30 -10 -77 -16 -105 -6 -27 -18 -84 -26 -125 -30 -152 -83 -365 -98
-400 -6 -14 -12 -36 -13 -50 -2 -14 -10 -43 -17 -65 -8 -22 -20 -60 -27 -85
-6 -25 -18 -58 -25 -75 -15 -36 -43 -117 -55 -163 -4 -19 -16 -42 -25 -52 -9
-10 -14 -24 -10 -30 4 -6 -1 -23 -11 -38 -10 -15 -18 -31 -19 -37 -1 -40 -226
-525 -247 -533 -4 -2 -8 -14 -8 -26 0 -13 -9 -31 -20 -41 -11 -10 -20 -28 -20
-40 0 -12 -11 -32 -25 -45 -14 -13 -23 -31 -20 -40 3 -9 -5 -23 -20 -34 -17
-13 -23 -25 -20 -38 4 -12 1 -18 -8 -18 -14 0 -37 -40 -37 -64 0 -8 -9 -16
-20 -19 -14 -3 -18 -10 -14 -21 4 -11 -3 -26 -21 -41 -14 -14 -25 -31 -23 -37
2 -6 -8 -25 -24 -42 -52 -58 -58 -66 -58 -80 0 -8 -11 -24 -25 -37 -14 -13
-35 -43 -45 -66 -11 -23 -33 -51 -50 -63 -16 -12 -30 -28 -30 -36 0 -8 -9 -14
-21 -14 -15 0 -19 -5 -15 -18 4 -12 -9 -33 -42 -67 -26 -27 -46 -55 -44 -63 2
-7 -26 -42 -62 -78 -37 -36 -64 -69 -61 -74 3 -4 -18 -27 -46 -51 -76 -66 -80
-70 -74 -79 3 -4 -3 -7 -13 -6 -12 1 -16 -5 -15 -21 2 -16 -16 -39 -68 -84
-38 -34 -84 -83 -103 -108 -18 -25 -78 -84 -134 -131 -56 -47 -101 -91 -102
-98 0 -7 -8 -16 -17 -19 -22 -8 -41 -25 -121 -103 -36 -36 -105 -95 -152 -133
-47 -37 -111 -88 -142 -113 -61 -48 -140 -94 -164 -94 -7 0 -14 -7 -14 -15 0
-8 -7 -15 -15 -15 -7 0 -18 -6 -22 -14 -4 -7 -21 -21 -38 -30 -44 -24 -60 -35
-159 -106 -50 -36 -104 -71 -121 -79 -62 -28 -102 -51 -170 -96 -50 -33 -76
-44 -92 -40 -16 4 -23 1 -23 -10 0 -8 -5 -15 -11 -15 -6 0 -32 -14 -57 -31
-46 -31 -91 -53 -104 -51 -3 1 -39 -16 -79 -38 -39 -22 -79 -40 -88 -40 -9 0
-35 -11 -58 -24 -23 -13 -57 -27 -75 -31 -18 -4 -45 -16 -60 -26 -35 -25 -53
-24 -76 6 -11 14 -28 25 -39 25 -10 0 -39 20 -63 45 -24 25 -48 45 -53 45 -12
0 -79 51 -99 76 -9 12 -30 27 -46 35 -36 18 -112 85 -112 100 0 6 -8 8 -19 4
-14 -4 -31 8 -67 50 -27 30 -52 55 -57 55 -13 0 -79 52 -101 78 -10 13 -37 35
-60 49 -22 14 -65 52 -94 85 -30 32 -58 55 -63 52 -5 -3 -41 25 -80 63 -39 37
-77 74 -85 81 -16 15 -15 17 37 87 85 116 119 224 119 383 0 206 -58 351 -194
484 -43 43 -84 78 -91 78 -7 0 -18 6 -24 14 -7 8 -37 26 -68 41 -79 37 -197
49 -356 37 -115 -9 -134 -13 -204 -46 -42 -20 -96 -53 -120 -72 -23 -19 -58
-41 -77 -49 l-35 -15 -67 83 c-67 81 -182 197 -195 197 -4 0 -38 37 -75 83
-37 45 -120 134 -184 197 -64 63 -135 140 -157 171 -42 57 -219 249 -260 282
-13 10 -74 82 -137 160 -240 299 -265 329 -305 363 -23 20 -41 40 -41 45 0 11
2 9 -80 105 -33 39 -70 78 -83 87 -13 8 -56 58 -96 110 -39 52 -78 100 -86
107 -8 7 -12 16 -9 21 3 5 182 9 402 9 703 0 984 31 1482 163 341 91 633 234
921 454 92 70 261 235 351 343 54 65 162 234 187 293 10 23 30 67 43 97 82
182 141 436 153 655 3 66 1 206 -5 310 -35 616 -169 1007 -458 1346 -160 186
-322 308 -582 436 -371 183 -782 281 -1408 337 -149 14 -433 16 -2071 16
l-1898 0 -20 23 c-25 27 -54 83 -47 90 3 2 -7 24 -21 48 -35 60 -53 99 -59
130 -3 14 -18 43 -32 65 -15 21 -31 56 -36 77 -4 21 -19 55 -33 75 -13 20 -25
48 -27 62 -2 14 -15 46 -30 70 -14 25 -31 65 -38 90 -6 25 -19 53 -27 62 -13
15 -12 20 12 52 14 19 33 37 42 40 8 3 13 13 10 21 -6 13 70 98 97 109 8 3 7
7 -2 14 -11 7 -1 22 42 62 30 30 53 57 50 61 -2 5 5 13 16 19 11 6 20 15 20
20 0 5 32 41 70 79 39 39 70 77 70 85 0 8 8 21 19 28 50 35 171 153 171 167 0
16 11 26 136 126 44 35 85 75 92 89 6 14 18 26 25 26 17 0 110 87 125 116 6
12 75 70 152 130 166 128 219 165 236 161 7 -1 46 24 88 56 41 31 78 57 81 57
4 0 58 39 121 86 62 47 123 86 136 88 13 1 57 24 98 50 116 75 118 76 137 76
10 0 47 19 82 43 103 68 123 78 137 73 8 -3 41 13 74 36 40 27 66 39 80 35 13
-3 31 3 48 16 43 35 68 46 89 41 11 -3 25 2 32 10 8 9 20 16 28 16 7 0 16 7
19 15 4 8 14 15 24 15 11 0 22 5 25 10 4 6 15 8 25 5 10 -3 21 -1 25 5 10 16
77 43 101 41 11 -1 27 5 34 13 7 9 21 16 31 16 10 0 21 5 24 10 3 6 17 7 31 4
17 -4 26 -1 30 10 3 9 16 16 28 16 12 0 28 6 34 12 10 10 14 10 21 0 6 -10 13
-8 33 8 14 11 42 21 62 22 20 2 36 7 36 11 0 5 9 5 20 2 14 -4 22 -1 26 10 5
12 14 14 35 10 21 -5 31 -2 35 9 4 11 14 13 33 10 20 -4 30 -1 34 10 5 12 14
15 31 10 13 -3 27 -1 31 5 3 6 17 8 32 5 19 -5 30 -2 39 11 11 15 16 16 29 5
13 -11 19 -9 38 8 15 15 27 18 37 12 9 -5 19 -5 27 1 7 6 17 8 23 4 5 -3 10
-1 10 5 0 7 8 9 20 5 12 -4 26 -2 33 3 7 6 42 13 80 17 37 4 67 11 67 15 0 5
18 6 40 3 25 -4 40 -2 40 5 0 6 16 9 40 7 22 -2 42 1 46 6 3 6 18 10 32 9 15
-1 29 -1 32 0 3 1 22 3 43 4 22 2 42 9 47 15 5 8 10 9 14 3 4 -8 101 -9 101
-1 0 4 80 11 115 10 19 0 42 2 50 5 8 4 57 7 108 7 51 0 95 4 98 9 3 4 14 3
25 -3 11 -6 28 -8 36 -4z m3008 -721 c30 -15 58 -30 61 -35 3 -5 13 -9 23 -9
10 0 28 -11 41 -25 13 -14 29 -24 36 -21 7 3 25 -8 41 -24 15 -16 34 -30 41
-30 19 0 102 -59 102 -71 0 -6 8 -8 18 -5 12 4 27 -3 42 -19 13 -14 29 -25 37
-25 14 0 33 -15 83 -63 16 -16 33 -26 38 -23 5 3 20 -6 32 -19 13 -14 29 -25
36 -25 7 0 18 -9 24 -20 6 -11 17 -20 25 -20 8 0 36 -20 62 -45 26 -25 56 -47
66 -51 9 -3 17 -10 17 -15 0 -5 5 -9 11 -9 6 0 34 -20 61 -45 28 -25 54 -45
59 -45 5 0 35 -26 65 -57 31 -32 60 -57 65 -55 5 1 12 -5 15 -13 4 -8 11 -15
16 -15 5 0 43 -36 85 -80 41 -44 80 -80 85 -80 5 0 42 -35 81 -77 39 -43 112
-119 162 -169 129 -132 159 -167 396 -474 167 -216 204 -270 187 -270 -38 0
-276 33 -368 51 -624 121 -1141 466 -1480 986 -153 234 -285 560 -320 793 -5
36 -12 80 -15 98 -7 39 -1 40 70 6z m-7831 -1910 c3 -9 6 -24 6 -34 0 -10 14
-44 30 -75 17 -31 30 -65 30 -75 0 -9 10 -32 23 -51 27 -42 47 -85 47 -105 0
-8 12 -33 27 -57 14 -23 32 -61 39 -85 8 -24 27 -64 44 -89 17 -25 33 -58 35
-73 2 -15 22 -57 44 -92 23 -36 41 -72 41 -80 0 -9 7 -32 15 -51 13 -31 15
-126 15 -637 l0 -600 305 0 305 0 -2 -2352 -3 -2353 -302 -3 -303 -2 0 -240
c0 -145 -4 -240 -10 -240 -5 0 -22 19 -38 43 -16 23 -90 119 -163 213 -179
228 -230 301 -277 394 -9 19 -39 65 -65 102 -26 37 -59 87 -72 112 -39 74
-117 209 -137 238 -11 15 -18 33 -16 40 2 7 -7 27 -18 43 -26 36 -68 116 -69
130 0 10 -15 38 -56 113 -11 18 -17 37 -15 41 3 4 -9 31 -25 61 -16 29 -29 59
-29 67 0 7 -4 13 -8 13 -4 0 -8 8 -9 18 -1 9 -12 40 -24 67 -13 28 -23 55 -24
60 -1 13 -22 65 -35 87 -6 10 -10 24 -10 32 0 7 -8 35 -19 62 -36 95 -54 149
-56 169 -1 11 -10 38 -20 60 -10 22 -19 49 -21 60 -2 11 -24 97 -49 190 -24
94 -43 175 -41 181 3 6 1 15 -4 20 -4 5 -15 54 -25 109 -9 55 -20 109 -25 120
-9 22 -47 305 -61 450 -4 50 -13 131 -19 180 -12 95 -17 786 -5 805 3 5 13 88
20 183 15 177 30 300 46 374 5 23 9 54 9 68 0 15 7 59 15 99 45 207 57 262 85
381 33 138 38 156 70 251 11 33 20 68 20 78 0 9 5 27 12 39 7 12 13 30 15 39
1 9 16 51 33 93 17 42 32 84 34 93 1 9 8 30 14 45 7 16 12 34 12 40 0 7 9 27
20 45 11 18 20 38 20 45 1 6 9 30 20 52 11 22 19 44 20 48 0 5 18 48 40 95 23
48 47 101 54 117 23 52 131 266 181 360 80 147 286 484 296 485 4 0 10 -7 13
-16z m4013 -2123 c82 -16 173 -39 203 -51 281 -110 458 -339 515 -665 72 -409
-26 -711 -298 -927 -46 -36 -136 -83 -262 -138 -22 -9 -92 -28 -155 -41 -108
-22 -136 -24 -455 -24 l-340 0 -3 938 -2 937 324 0 c317 0 326 -1 473 -29z
m-777 -3094 c0 -7 11 -26 24 -43 13 -16 63 -78 111 -139 48 -60 102 -126 121
-145 18 -19 57 -64 86 -100 29 -36 75 -85 102 -110 27 -25 75 -79 107 -120 32
-41 90 -113 129 -160 38 -47 81 -101 94 -120 13 -19 68 -78 123 -130 54 -52
145 -153 202 -223 57 -70 139 -160 181 -200 43 -40 113 -112 156 -161 43 -49
96 -106 118 -125 65 -59 79 -73 136 -141 29 -36 59 -69 65 -75 6 -5 14 -18 18
-27 3 -10 13 -18 21 -18 17 0 12 -49 -9 -90 -57 -112 -76 -323 -40 -450 54
-192 185 -353 355 -437 155 -76 444 -69 601 14 66 35 66 35 102 19 19 -10 58
-44 87 -77 28 -32 58 -59 65 -59 8 0 39 -24 69 -54 30 -30 67 -61 84 -70 16
-8 49 -37 73 -64 25 -27 60 -57 79 -67 19 -10 54 -37 77 -61 23 -24 45 -44 49
-44 10 0 97 -71 112 -92 7 -10 17 -16 21 -14 4 3 36 -20 70 -50 34 -30 75 -61
89 -68 15 -8 43 -30 61 -50 19 -20 42 -36 52 -36 9 0 22 -7 29 -15 10 -12 8
-16 -15 -25 -14 -5 -33 -10 -41 -10 -8 0 -22 -4 -32 -10 -26 -15 -132 -51
-178 -60 -22 -5 -56 -15 -75 -23 -19 -8 -56 -20 -84 -26 -27 -7 -52 -17 -56
-22 -3 -5 -13 -7 -22 -3 -10 3 -28 -1 -41 -9 -18 -12 -26 -13 -35 -4 -10 9
-15 9 -24 -3 -7 -8 -25 -17 -42 -18 -16 -2 -31 -8 -33 -13 -2 -4 -17 -6 -33
-2 -22 4 -34 1 -45 -13 -10 -13 -17 -15 -20 -7 -4 8 -12 8 -32 -3 -15 -7 -34
-11 -43 -9 -9 3 -29 -1 -44 -9 -22 -12 -32 -13 -43 -3 -11 9 -17 8 -26 -3 -15
-20 -35 -23 -51 -10 -10 8 -16 7 -23 -6 -7 -13 -17 -15 -40 -11 -18 4 -34 2
-38 -4 -3 -6 -22 -9 -41 -7 -18 1 -37 -2 -41 -7 -4 -6 -20 -10 -37 -10 -16 0
-34 -2 -40 -4 -9 -5 -105 -11 -154 -11 -13 0 -30 -5 -37 -11 -9 -7 -19 -7 -32
0 -14 7 -25 6 -41 -5 -17 -12 -25 -13 -36 -4 -9 8 -20 8 -32 2 -23 -13 2 -12
-423 -15 -340 -2 -611 6 -633 20 -5 3 -26 7 -46 9 -76 5 -179 16 -207 20 -16
3 -55 8 -87 11 -31 3 -60 9 -63 14 -3 5 -28 9 -55 9 -28 0 -58 4 -68 9 -9 5
-48 15 -87 21 -38 6 -85 14 -104 17 -19 3 -40 9 -45 14 -6 4 -35 11 -65 15
-30 4 -59 10 -65 14 -5 4 -39 13 -75 20 -36 6 -69 15 -75 18 -5 4 -46 16 -90
28 -44 12 -105 29 -135 39 -30 9 -68 20 -85 25 -16 4 -52 17 -80 28 -27 11
-88 34 -135 51 -46 18 -100 39 -120 48 -19 8 -48 21 -65 28 -16 7 -48 21 -70
30 -22 10 -48 19 -57 20 -10 1 -27 10 -38 20 -12 10 -30 19 -40 20 -11 1 -28
9 -38 18 -10 9 -27 17 -38 17 -11 0 -30 9 -42 20 -12 11 -29 20 -40 20 -10 0
-22 4 -28 9 -5 5 -62 37 -127 70 -65 34 -153 83 -197 110 -43 27 -87 52 -98
55 -11 4 -27 15 -37 26 -10 11 -22 20 -27 20 -10 0 -122 74 -190 125 -25 19
-50 35 -55 35 -4 0 -26 14 -47 30 -22 17 -47 30 -55 30 -14 0 -14 1 -1 10 9 6
466 10 1238 10 l1222 0 0 715 0 715 -327 2 -328 3 -3 803 c-1 533 1 802 8 802
5 0 10 -6 10 -13z m6688 -1819 c7 -7 12 -26 12 -44 0 -17 9 -43 20 -57 11 -14
20 -35 20 -46 0 -12 5 -21 10 -21 6 0 8 -11 4 -25 -4 -18 -1 -27 10 -31 9 -3
16 -17 16 -30 0 -14 7 -27 15 -30 11 -5 12 -10 5 -18 -7 -9 -5 -19 5 -32 8
-10 15 -29 15 -42 0 -12 7 -25 15 -28 10 -4 13 -14 9 -28 -3 -14 1 -27 9 -35
8 -6 13 -21 10 -31 -3 -12 1 -22 11 -26 11 -4 14 -13 10 -28 -3 -14 1 -27 10
-35 10 -9 14 -22 10 -37 -5 -18 -2 -24 10 -24 9 0 16 -4 16 -10 0 -5 -4 -10
-9 -10 -6 0 -3 -12 5 -27 7 -16 14 -40 14 -54 0 -15 7 -32 16 -40 8 -7 13 -21
11 -31 -3 -10 -1 -21 4 -24 5 -3 9 -18 9 -33 0 -16 7 -34 15 -41 12 -10 13
-16 3 -27 -9 -11 -9 -16 1 -22 6 -4 14 -26 16 -49 2 -23 7 -47 12 -54 4 -7 6
-20 5 -29 -2 -9 4 -19 11 -22 10 -4 13 -15 10 -31 -3 -14 0 -32 6 -39 6 -8 8
-24 6 -37 -3 -13 2 -31 11 -41 12 -13 13 -22 5 -37 -7 -14 -7 -22 -1 -24 11
-3 24 -72 24 -125 0 -18 5 -33 11 -33 6 0 10 -13 9 -28 -1 -15 2 -51 6 -79 7
-42 22 -279 23 -368 1 -11 -3 -81 -7 -155 -4 -74 -8 -142 -8 -150 0 -8 -7 -40
-15 -70 -9 -30 -21 -78 -27 -106 -6 -28 -16 -57 -22 -65 -6 -8 -14 -30 -18
-51 -4 -20 -13 -39 -21 -42 -9 -3 -14 -9 -13 -13 4 -16 -13 -51 -27 -57 -8 -3
-15 -17 -15 -31 0 -15 -6 -25 -14 -25 -7 0 -16 -8 -19 -19 -2 -10 -32 -40 -65
-67 -33 -27 -61 -55 -61 -62 -1 -7 -6 -10 -12 -7 -6 4 -20 -2 -32 -12 -35 -31
-79 -56 -122 -69 -22 -6 -39 -17 -37 -24 1 -6 -2 -9 -6 -6 -8 5 -105 -10 -142
-21 -8 -3 -54 -6 -101 -8 -48 -1 -92 -5 -98 -9 -7 -4 -18 -3 -25 3 -7 6 -29
11 -47 10 -70 -3 -270 30 -309 51 -10 6 -33 10 -50 10 -17 0 -41 7 -54 15 -13
9 -28 15 -32 14 -16 -3 -74 13 -80 22 -3 5 -15 9 -28 9 -12 0 -31 7 -42 15
-10 8 -31 15 -45 15 -15 0 -32 7 -39 15 -7 8 -25 15 -41 15 -16 0 -29 4 -29 9
0 5 -17 15 -37 22 -21 7 -52 20 -70 30 -17 10 -33 15 -36 12 -3 -3 -21 7 -40
21 -18 14 -36 23 -40 20 -3 -3 -19 3 -35 15 -17 12 -36 21 -44 21 -7 0 -24 9
-38 20 -14 11 -33 20 -44 20 -10 0 -27 10 -37 21 -11 13 -25 19 -34 15 -9 -3
-24 4 -37 19 -12 14 -31 25 -42 25 -12 0 -32 12 -45 25 -12 14 -27 22 -32 19
-5 -3 -25 8 -45 25 -20 16 -42 27 -49 25 -7 -3 -15 2 -18 10 -4 9 -14 16 -23
16 -9 0 -25 11 -35 25 -11 13 -26 22 -33 19 -7 -3 -28 9 -46 26 -25 23 -35 28
-41 18 -9 -13 -10 -11 -13 15 0 6 -13 13 -28 15 -16 2 -28 9 -28 15 0 15 -38
40 -49 32 -5 -2 -16 6 -25 20 -9 14 -22 25 -30 25 -7 0 -21 9 -31 20 -10 11
-25 20 -34 20 -8 0 -26 11 -41 25 -14 13 -61 46 -104 72 -88 53 -110 78 -86
94 8 5 25 8 38 6 12 -3 26 1 30 8 9 15 115 65 137 65 10 0 37 14 62 30 25 17
60 34 77 37 17 3 61 26 98 50 37 23 75 43 86 43 10 0 56 25 101 55 44 30 99
60 121 66 22 7 37 16 34 20 -3 5 2 9 11 9 9 0 29 9 43 21 86 66 163 119 202
139 50 25 103 61 108 73 2 4 8 7 13 7 14 0 112 65 162 107 24 21 110 90 191
153 80 63 148 123 152 133 3 9 11 17 17 17 7 0 39 28 72 62 33 33 104 99 158
146 53 47 97 88 97 92 0 4 50 57 110 119 61 61 110 117 110 125 0 7 27 34 59
60 37 30 58 53 54 62 -3 8 1 14 11 14 9 0 16 7 16 16 0 9 23 38 51 64 31 29
49 53 44 59 -4 7 12 29 39 55 25 23 46 51 46 62 0 22 18 44 35 44 6 0 16 -5
23 -12z"/>
<path d="M11572 15585 c0 -16 2 -22 5 -12 2 9 2 23 0 30 -3 6 -5 -1 -5 -18z"/>
</g>
</svg>
