<?xml version="1.0" standalone="no"?>
<!DOCTYPE svg PUBLIC "-//W3C//DTD SVG 20010904//EN"
 "http://www.w3.org/TR/2001/REC-SVG-20010904/DTD/svg10.dtd">
<svg version="1.0" xmlns="http://www.w3.org/2000/svg"
 width="512.000000pt" height="512.000000pt" viewBox="0 0 512.000000 512.000000"
 preserveAspectRatio="xMidYMid meet">
<metadata>
Created by potrace 1.14, written by Peter Selinger 2001-2017
</metadata>
<g transform="translate(0.000000,512.000000) scale(0.100000,-0.100000)"
fill="#000000" stroke="none">
<path d="M2340 5109 c-476 -41 -923 -213 -1320 -508 -132 -98 -375 -335 -472
-461 -325 -423 -501 -883 -540 -1415 -25 -347 38 -766 161 -1075 l30 -75 0
188 c2 453 91 836 291 1242 285 580 755 1034 1360 1314 676 313 1494 332 2203
50 171 -68 401 -191 557 -297 24 -16 24 -16 -4 23 -108 148 -314 358 -466 476
-516 402 -1156 593 -1800 538z"/>
<path d="M2890 2667 c-85 -43 -95 -196 -16 -259 26 -22 84 -23 113 -3 33 23
57 96 48 151 -12 82 -88 141 -145 111z"/>
<path d="M1178 2574 c-50 -27 -76 -106 -58 -175 41 -150 210 -122 210 36 0 62
-22 111 -62 135 -39 24 -54 24 -90 4z"/>
<path d="M2105 1781 l-670 -36 3 -30 c22 -207 210 -383 482 -451 107 -27 324
-25 435 5 281 74 484 269 502 482 l6 69 -44 -1 c-24 -1 -345 -18 -714 -38z"/>
</g>
</svg>
