<?xml version="1.0" encoding="UTF-8" standalone="no"?>
<svg
   xmlns:dc="http://purl.org/dc/elements/1.1/"
   xmlns:cc="http://creativecommons.org/ns#"
   xmlns:rdf="http://www.w3.org/1999/02/22-rdf-syntax-ns#"
   xmlns:svg="http://www.w3.org/2000/svg"
   xmlns="http://www.w3.org/2000/svg"
   version="1.1"
   id="svg8250"
   viewBox="0 0 807.58065 298.3774"
   height="84.208733mm"
   width="227.91721mm">
  <defs
     id="defs8252" />
  <metadata
     id="metadata8255">
    <rdf:RDF>
      <cc:Work
         rdf:about="">
        <dc:format>image/svg+xml</dc:format>
        <dc:type
           rdf:resource="http://purl.org/dc/dcmitype/StillImage" />
        <dc:title></dc:title>
      </cc:Work>
    </rdf:RDF>
  </metadata>
  <g
     transform="translate(-222.44327,-402.21939)"
     id="layer1">
    <path
       id="path8809"
       d="m 764.92854,700.29656 c -2.3227,-0.45422 -3.0698,-1.18952 -3.3092,-3.25692 -0.2533,-2.18815 0.3026,-2.96053 3.0792,-4.27811 1.8635,-0.88433 5.1315,-3.39308 7.2621,-5.575 2.1306,-2.18193 4.3886,-3.96714 5.0178,-3.96714 0.6293,0 2.1818,-0.9 3.4501,-2 1.4598,-1.26611 3.7414,-2 6.2176,-2 5.7155,0 13.5665,-3.68186 15.3964,-7.22037 1.3631,-2.63593 1.3558,-3.17679 -0.072,-5.35583 -1.2834,-1.95865 -2.4346,-2.4238 -5.9987,-2.4238 -4.0134,0 -4.439,-0.23634 -4.727,-2.62465 -0.3045,-2.52613 -0.8231,-2.72903 -13.8164,-5.40545 -42.5414,-8.7629 -75.0768,-19.34156 -110.5312,-35.93845 -20.7124,-9.69584 -39.4688,-22.9565 -39.4688,-27.90417 0,-2.04866 6.5738,-6.12728 9.8758,-6.12728 1.6931,0 5.1242,-2.8724 5.1242,-4.28979 0,-0.34776 -1.0008,-1.5647 -2.224,-2.70431 -1.7574,-1.6372 -1.9976,-2.4323 -1.1446,-3.78895 0.8528,-1.35648 2.8418,-1.7789 9.474,-2.012 4.617,-0.16228 9.3575,-0.0537 10.5343,0.24136 3.0918,0.77513 3.6431,3.27084 1.251,5.66303 -2.4422,2.44221 -1.8761,6.88702 0.8784,6.89682 0.952,0.003 3.0198,0.67839 4.5952,1.5 4.6867,2.44431 58.7317,2.14102 72.1377,-0.40481 12.5775,-2.3885 27.6494,-3.85982 47.498,-4.63674 10.263,-0.40171 16.5845,-1.09891 18.7098,-2.06349 l 3.2098,-1.45678 -3.2098,-4.55375 c -5.805,-8.2356 -3.5588,-16.5707 6.2737,-23.28038 6.1738,-4.21294 9.0637,-4.02968 14.42793,0.91491 5.58535,5.1484 6.94173,8.461 6.21291,15.17338 -0.31659,2.91582 -0.60764,6.18076 -0.64677,7.25541 -0.0391,1.07466 -0.53194,2.50913 -1.09512,3.18773 -0.75304,0.90736 -0.16169,1.67972 2.23494,2.91907 2.49411,1.28975 7.61503,1.88076 21.82076,2.51836 10.20902,0.45821 25.07455,1.75287 33.03452,2.87702 7.95997,1.12415 14.82247,2.04391 15.25,2.04391 0.42753,0 0.77733,-1.11463 0.77733,-2.47695 0,-3.02901 4.02462,-5.9674 6.9163,-5.04962 1.29929,0.41238 2.24426,1.86551 2.66232,4.09398 0.35646,1.90007 1.04709,3.70127 1.53474,4.00265 1.14894,0.71009 1.12716,-0.80724 -0.0563,-3.91988 -0.6967,-1.83245 -0.59397,-2.61392 0.39342,-2.99282 0.80235,-0.30789 1.62171,-3.03908 2.05052,-6.83508 0.71661,-6.34363 4.83879,-19.71118 7.90956,-25.64941 3.36024,-6.49798 12.67445,-14.6749 21.5894,-18.95326 10.68506,-5.12787 18.38978,-6.6435 30.2747,-5.95551 28.0346,1.62287 47.3984,17.90006 52.9006,44.4683 4.8848,23.58705 -2.8962,44.81589 -22.3422,60.95628 -6.98258,5.79565 -15.1823,9.84071 -25.20612,12.43461 -6.86333,1.77605 -9.83735,2.00769 -19.12698,1.48977 -6.05,-0.3373 -14.825,-1.52333 -19.5,-2.63562 -14.20136,-3.37883 -20.03334,-4.12167 -25.92525,-3.30221 -3.06611,0.42644 -6.78202,0.64923 -8.25758,0.49509 -1.6055,-0.16772 -6.42425,1.53351 -12,4.23655 -13.77785,6.67928 -28.57086,11.14725 -53.49784,16.15807 -1.32442,0.26624 -2.30605,1.32118 -2.5,2.68671 -0.23652,1.66534 -1.09725,2.33487 -3.31933,2.58201 -3.51055,0.39045 -6.5,2.76627 -6.5,5.16579 0,4.57461 9.2722,10.00055 17.08959,10.00055 3.37097,0 8.29705,2.93861 15.50604,9.25 2.98405,2.6125 6.09578,4.75 6.91496,4.75 0.81917,0 1.52384,0.5625 1.56592,1.25 0.0421,0.6875 0.227,2.03571 0.41093,2.99603 0.18394,0.96032 -0.008,1.95762 -0.42637,2.21623 -1.1413,0.70536 -103.09023,1.29366 -106.56103,0.61491 z m 34.5,-3.07717 c 0,-0.60899 -4.5197,-1 -11.559,-1 -7.4514,0 -11.3394,0.35536 -10.941,1 0.3511,0.56808 5.3437,1 11.559,1 6.6273,0 10.941,-0.39427 10.941,-1 z m -19.7833,-7.86996 c 1.0322,-1.85348 1.6672,-3.57944 1.4112,-3.83546 -0.8104,-0.81036 -7.4477,2.79346 -8.0538,4.3729 -1.778,4.63336 4.0244,4.1639 6.6426,-0.53744 z m 30.5833,2.66996 c 2.0741,-2.07405 1.3207,-3.85163 -2.2679,-5.35103 -4.0933,-1.71029 -7.6502,-1.8216 -12.7703,-0.39964 -3.7136,1.03132 -6.4078,4.09635 -5.249,5.97134 0.8905,1.44085 18.8207,1.24582 20.2872,-0.22067 z m 33.00902,-8.77359 c 3.38255,-0.0168 5.07799,-0.40022 4.67235,-1.05656 -0.41356,-0.66914 -6.30409,-0.87077 -16.80902,-0.57535 -8.89475,0.25014 -23.14735,0.58424 -31.67235,0.74245 l -15.5,0.28765 16.5,0.5377 c 9.075,0.29574 21.225,0.43708 27,0.31411 5.775,-0.12298 12.88906,-0.23548 15.80902,-0.25 z m -29.79892,-6.53558 c 2.2138,-2.0034 2.6368,-6.44391 0.7899,-8.29083 -0.66,-0.66 -2.4251,-1.2 -3.9225,-1.2 -2.2061,0 -2.9339,0.64085 -3.8376,3.37908 -0.6134,1.8585 -1.9983,4.17824 -3.0776,5.15499 -1.0792,0.97675 -1.9623,2.21341 -1.9623,2.74815 0,1.6327 9.85,0.16352 12.0101,-1.79139 z m -15.2101,-15.69083 c 1.5956,-1.59558 1.5192,-2.8 -0.1776,-2.8 -1.696,0 -3.8483,2.44075 -2.9471,3.34201 0.9553,0.95524 1.7685,0.81417 3.1247,-0.54201 z m 21.2,0.17525 c 0,-2.51521 -9.3867,-3.909 -13.0657,-1.94007 -3.7183,1.98995 -1.8882,2.96482 5.5657,2.96482 4.4541,0 7.5,-0.41617 7.5,-1.02475 z m 15.18333,-2.19192 c -0.71756,-0.71756 -1.18333,-0.7766 -1.18333,-0.15 0,1.33478 1.18261,2.51739 1.85,1.85 0.28417,-0.28416 -0.0158,-1.04916 -0.66667,-1.7 z m -13.73613,-6.68123 c 0.8242,-1.59385 1.98376,-5.06295 2.57678,-7.70911 0.59302,-2.64616 1.56032,-5.3921 2.14956,-6.10209 1.41291,-1.70246 7.27786,-1.65684 8.70914,0.0677 1.21802,1.46763 -0.32846,4.04025 -6.24659,10.39137 -1.66563,1.7875 -2.5453,3.25 -1.95483,3.25 0.59048,0 4.11524,-3.3985 7.8328,-7.55222 6.30498,-7.0447 7.00203,-7.53191 10.37257,-7.25 2.91884,0.24413 3.57943,0.68664 3.4368,2.30222 -0.0971,1.1 -1.64915,3.125 -3.44896,4.5 -1.79981,1.375 -4.42035,3.54725 -5.82343,4.82722 l -2.55104,2.32722 3.36871,-1.82722 c 1.8528,-1.00497 6.03231,-4.18972 9.2878,-7.07722 5.70772,-5.06252 8.45499,-6.10378 12.25596,-4.64522 0.86682,0.33264 1.32253,1.01498 1.01269,1.51632 -0.30985,0.50134 -0.97711,0.65581 -1.4828,0.34327 -0.5057,-0.31253 -0.69675,0.0176 -0.42457,0.73369 0.5368,1.4122 -4.51984,4.91762 -14.10604,9.77877 -3.25146,1.64881 -5.3215,3.00354 -4.60008,3.0105 2.37905,0.023 15.96881,-7.10794 19.86507,-10.42374 5.22484,-4.44645 7.58568,-5.56359 11.75752,-5.56359 6.64278,0 3.61385,3.49622 -7.73645,8.92998 -2.64121,1.26443 -4.57474,2.52642 -4.29674,2.80442 0.58456,0.58456 13.44471,-5.90756 18.58106,-9.38018 3.56088,-2.40746 10.35922,-3.22895 11.49627,-1.38917 0.32804,0.53078 -2.00791,2.30913 -5.19098,3.9519 -7.58775,3.91599 -4.8331,3.95807 3.43317,0.0525 4.70469,-2.22286 6.32554,-3.48887 6.08136,-4.75 -0.31207,-1.61175 -5.09003,-1.6962 -76.31745,-1.34886 -41.7915,0.2038 -76.4014,0.75567 -76.9109,1.22637 -1.282,1.18436 2.0704,4.67902 6.8079,7.0969 4.8369,2.46864 12.8064,4.91928 12.0577,3.70778 -0.3065,-0.49589 -1.009,-0.90161 -1.5612,-0.90161 -0.5522,0 -3.9007,-1.39703 -7.441,-3.1045 -8.2288,-3.96866 -8.4689,-5.8955 -0.7346,-5.8955 4.9425,0 6.1085,0.38982 8.75,2.92547 3.8844,3.72871 16.9774,10.70195 21.5476,11.47606 l 3.5,0.59284 -3.5288,-1.36827 c -5.0133,-1.94383 -13.9872,-6.54121 -17.2212,-8.82244 -4.1113,-2.90009 -3.5724,-4.80366 1.3598,-4.80366 3.5263,0 4.8735,0.69798 9.4894,4.91665 5.3788,4.91591 16.3117,11.14897 19.3105,11.00926 0.8747,-0.0408 -1.3118,-1.40999 -4.8589,-3.04275 -7.0883,-3.26287 -15.0508,-9.26384 -15.0508,-11.34312 0,-0.72933 0.6316,-1.56843 1.4035,-1.86465 2.7083,-1.03928 6.1488,0.69418 11.9322,6.01193 3.2097,2.95123 8.1597,6.52725 11,7.94671 6.1185,3.05771 5.4572,2.31692 -3.5725,-4.00195 -6.5491,-4.58295 -9.3508,-7.71112 -8.0613,-9.0006 0.3473,-0.34731 2.3017,-0.63148 4.3432,-0.63148 3.3201,0 4.1614,0.58294 7.9745,5.52543 4.742,6.14649 6.5051,6.81015 2.5298,0.95226 -2.9468,-4.34236 -3.1831,-6.02053 -0.9676,-6.8707 4.2136,-1.61691 8.3885,0.0359 8.4444,3.34301 0.014,0.8525 0.8637,3.35 1.8871,5.55 l 1.8609,4 -0.1371,-6.5 c -0.1289,-6.10951 0,-6.52 2.2146,-6.83288 1.2935,-0.18308 3.431,-0.062 4.75,0.26905 3.0601,0.76804 3.18524,4.47191 0.3988,11.8031 -2.211,5.8172 -2.196,5.76073 -1.5262,5.76073 0.2609,0 1.1487,-1.30406 1.9729,-2.8979 z m 13.5528,0.3979 c 0.69443,-0.83674 0.80272,-1.5 0.24489,-1.5 -0.55,0 -1.5602,0.675 -2.24489,1.5 -0.69443,0.83674 -0.80272,1.5 -0.24489,1.5 0.55,0 1.5602,-0.675 2.24489,-1.5 z m 44,-6.5 c 1.82797,-1.18132 0.24909,-1.18132 -2.5,0 -1.31874,0.56668 -1.48906,0.87815 -0.5,0.9144 0.825,0.0302 2.175,-0.38124 3,-0.9144 z m -60.0354,-6.25 c 0.02,-0.4125 -0.6396,-0.75 -1.4646,-0.75 -1.0329,0 -1.489,1.01203 -1.4646,3.25 l 0.035,3.25 1.4292,-2.5 c 0.786,-1.375 1.4451,-2.8375 1.4646,-3.25 z m -79.9646,1.88306 c 0,-0.20182 -3.2625,-2.53212 -7.25,-5.17843 -10.3206,-6.84929 -21.2132,-16.18812 -28.75,-24.64884 -3.575,-4.01327 -9.0622,-9.99886 -12.1938,-13.30132 l -5.6937,-6.00447 -25.5193,-0.2143 c -16.3047,-0.13692 -25.7443,0.14971 -26.1423,0.7938 -1.9984,3.2334 17.8694,16.63007 38.0491,25.65619 20.9424,9.36728 48.8627,19.86039 60,22.54942 2.5098,0.60597 7.5,0.83748 7.5,0.34795 z m -23.6492,-7.09187 c -13.0382,-5.14475 -15.4853,-6.24041 -37.3182,-16.70915 -21.5271,-10.32212 -36.0326,-19.20414 -36.0326,-22.06354 0,-0.49155 8.9757,-0.74672 20.25,-0.57569 l 20.25,0.30719 14.5449,14.5 c 12.2922,12.25429 24.333,22.492 32.5683,27.69119 4.5298,2.8598 -3.5598,1.07312 -14.2624,-3.15 z m 116.4315,5.61331 c 0.28658,-0.86063 -0.19425,-1.221 -1.33427,-1 -0.98026,0.19002 -1.98391,0.95098 -2.23033,1.691 -0.28658,0.86063 0.19425,1.221 1.33427,1 0.98026,-0.19002 1.98391,-0.95098 2.23033,-1.691 z m -25.7823,-0.1545 c 0,-0.55 -0.45,-1 -1,-1 -0.55,0 -1,0.45 -1,1 0,0.55 0.45,1 1,1 0.55,0 1,-0.45 1,-1 z m 39,0 c 0,-0.55 -0.70156,-1 -1.55902,-1 -0.85746,0 -1.2809,0.45 -0.94098,1 0.33992,0.55 1.04148,1 1.55902,1 0.51754,0 0.94098,-0.45 0.94098,-1 z m 94,-4 c -0.825,-0.53316 -2.4,-0.93141 -3.5,-0.88501 -1.64764,0.0695 -1.55955,0.22543 0.5,0.88501 3.53568,1.13232 4.75214,1.13232 3,0 z m -22.49445,-3.00613 c 0.99854,-1.10337 1.57923,-2.24242 1.29043,-2.53122 -0.65483,-0.65484 -6.78102,2.76242 -6.78966,3.78735 -0.013,1.53789 3.74816,0.67878 5.49923,-1.25613 z m 33.41112,0.59861 c -0.22917,-0.22413 -3.11667,-1.59579 -6.41667,-3.04812 -3.60768,-1.58773 -5.401,-2.03665 -4.49769,-1.12588 0.82627,0.83309 3.30127,2.17303 5.5,2.97765 4.02524,1.47303 6.18523,1.9503 5.41436,1.19635 z m -183.91667,-1.19825 c 0,-0.33318 -3.1664,-3.99628 -7.0364,-8.14023 -7.3003,-7.81718 -18.3988,-22.08253 -20.2344,-26.00823 -0.5798,-1.23982 -0.7192,-2.58906 -0.31,-2.9983 0.9026,-0.90263 112.92543,-1.3865 126.70075,-0.54727 6.04435,0.36824 9.95122,1.04289 10.22884,1.76635 1.1357,2.9596 -7.9235,19.00666 -17.08822,30.26932 -2.34331,2.87973 -4.26057,5.46723 -4.26057,5.75 0,0.28277 4.3875,0.51245 9.75,0.51039 7.73027,-0.003 10.37993,-0.38788 12.79088,-1.85813 4.0852,-2.49123 12.77275,-12.55865 20.82969,-24.13813 3.63553,-5.225 7.08215,-10.0625 7.65917,-10.75 0.77508,-0.92349 6.28209,-1.25 21.08301,-1.25 16.84909,0 19.9825,0.22715 19.71057,1.42891 -0.58664,2.59261 -13.14722,15.96524 -20.62263,21.9559 -4.03884,3.23665 -9.87619,7.25667 -12.9719,8.93337 -3.09571,1.67671 -5.17086,3.20113 -4.61144,3.3876 3.48545,1.16182 26.17688,-15.43423 37.70555,-27.57706 6.1711,-6.49985 6.85777,-9.0852 2.6771,-10.07943 -1.375,-0.32699 -59.41838,-0.58435 -128.9853,-0.57191 -119.7491,0.0214 -126.5033,0.116 -126.824,1.77599 -0.2909,1.50619 0.033,1.61192 2.3004,0.75 3.8176,-1.45145 24.5214,-1.2523 27.1718,0.26137 1.1896,0.67939 5.2091,5.06026 8.9324,9.73526 8.1266,10.204 8.8051,10.91652 19.5016,20.47785 7.2858,6.51269 8.9017,7.5121 12.1531,7.51677 2.0625,0.003 3.75,-0.26722 3.75,-0.60039 z m 184.94376,-6.93208 c -2.89148,-1.94582 -5.6367,-3.77237 -6.10049,-4.05902 -0.4638,-0.28664 -0.84327,0.0873 -0.84327,0.83103 0,0.74371 2.3625,2.54288 5.25,3.99817 7.28845,3.67335 7.8902,3.39972 1.69376,-0.77018 z m -23.80454,0.62393 c 1.29843,-1.05266 2.00509,-2.27085 1.57036,-2.70709 -0.88574,-0.88881 -5.95877,1.86858 -6.51658,3.54202 -0.58021,1.74062 2.38717,1.23973 4.94622,-0.83493 z m 61.10568,-5.1106 c 16.67166,-6.2523 26.58086,-19.25219 27.55936,-36.15527 0.8973,-15.5003 -2.925,-25.89246 -13.3043,-36.17194 -10.48234,-10.38161 -23.67593,-14.86109 -37.46806,-12.72117 -20.26653,3.14446 -34.0319,17.71683 -34.0319,36.02703 0,5.39808 0.43283,7.3264 2.12826,9.4818 1.78932,2.27475 1.94737,3.10266 0.99241,5.19856 -0.89515,1.96465 -0.86935,2.34194 0.12174,1.78045 2.93446,-1.66249 5.75759,-4.89341 5.75759,-6.58925 0,-1.34461 0.75825,-1.82569 2.87756,-1.82569 3.67156,0 5.47015,2.17752 4.91618,5.95195 -0.39977,2.72386 -0.0989,3.07719 3.62656,4.25916 2.23437,0.70889 4.19392,1.98322 4.35455,2.83184 0.16063,0.84863 -1.29514,3.58019 -3.23504,6.07013 -3.16287,4.05969 -3.49439,5.06315 -3.21043,9.7176 0.24916,4.08398 0.92174,5.822 3.15512,8.15314 2.75944,2.88023 8.91346,5.47995 15.0155,6.34317 5.10845,0.72267 15.77024,-0.48589 20.7449,-2.35151 z m -51.53753,-3.49632 c 1.53595,-1.93646 4.48013,-4.64285 6.54263,-6.01419 2.0625,-1.37134 3.75,-3.16196 3.75,-3.97916 0,-2.2842 -0.98446,-1.81993 -5.14846,2.42797 -2.11005,2.15258 -5.37021,4.86169 -7.24478,6.02024 -4.10265,2.53558 -5.41032,5.06598 -2.61801,5.06598 1.05929,0 3.18267,-1.58438 4.71862,-3.52084 z m 73.60509,-6.72916 c 9.6339,-11.88037 12.7437,-27.25503 8.521,-42.12717 -1.9069,-6.71592 -2.7283,-6.32107 -1.1259,0.54117 3.3587,14.38308 -0.1684,30.6331 -8.9179,41.086 -2.1867,2.6125 -3.5141,4.75 -2.9497,4.75 0.5644,0 2.577,-1.9125 4.4725,-4.25 z M 646.17854,589.50314 c -1.5125,-0.22913 -3.9875,-0.22913 -5.5,0 -1.5125,0.22912 -0.275,0.41659 2.75,0.41659 3.025,0 4.2625,-0.18747 2.75,-0.41659 z m 117.9121,-0.96637 c 5.6228,-1.77242 7.2609,-3.56829 2.5879,-2.83706 -1.5125,0.23667 -7.1375,0.95833 -12.5,1.60369 -5.3625,0.64535 -9.75,1.56545 -9.75,2.04468 0,1.52105 14.11,0.93883 19.6621,-0.81131 z m 50.0942,0.43262 c -1.0968,-3.34143 -19.677,-4.72053 -23.2826,-1.72813 -2.803,2.32624 -0.2488,2.97813 11.6687,2.97813 9.1716,0 11.9269,-0.29655 11.6139,-1.25 z m 69.91804,0.12756 c -1.00412,-0.58389 -7.96211,-1.67472 -15.4622,-2.42406 -12.62967,-1.26184 -16.56193,-1.2585 -13.10527,0.0111 0.76622,0.28143 3.19313,1.16032 5.39313,1.95308 4.87376,1.75624 26.12904,2.17803 23.17434,0.45987 z m -234.67434,-5.37756 c 0,-1.83333 -0.5333,-2.5 -2,-2.5 -1.4667,0 -2,0.66667 -2,2.5 0,1.83333 0.5333,2.5 2,2.5 1.4667,0 2,-0.66667 2,-2.5 z m 177.5,-1.5 c 0.39777,-0.6436 -3.05605,-0.97495 -9.691,-0.92971 -6.6907,0.0456 -9.607,0.37193 -8.309,0.92971 2.8132,1.20887 17.25288,1.20887 18,0 z m -8.25,-3.70573 c -1.2375,-0.23836 -3.2625,-0.23836 -4.5,0 -1.2375,0.23835 -0.225,0.43337 2.25,0.43337 2.475,0 3.4875,-0.19502 2.25,-0.43337 z m -175.25,-1.73525 c 0,-0.24254 -0.45,-0.7191 -1,-1.05902 -0.55,-0.33992 -1,-0.14148 -1,0.44098 0,0.58246 0.45,1.05902 1,1.05902 0.55,0 1,-0.19844 1,-0.44098 z m 8.5,-0.55902 c -0.3399,-0.55 -1.4915,-1 -2.559,-1 -1.0676,0 -1.941,0.45 -1.941,1 0,0.55 1.1516,1 2.559,1 1.4514,0 2.2915,-0.43284 1.941,-1 z m 173.12558,-0.29225 c 0.38926,-0.38926 -3.30478,-0.70086 -8.20888,-0.69244 -6.0489,0.0104 -8.4343,0.3224 -7.4167,0.97014 1.6691,1.06248 14.51368,0.8342 15.62558,-0.2777 z m -8.62558,-3.70775 c 0,-0.55 -0.7125,-1 -1.5833,-1 -0.8709,0 -1.4189,-0.3375 -1.218,-0.75 0.201,-0.4125 0.9785,-1.97159 1.7278,-3.46464 1.0528,-2.09781 1.1434,-4.14282 0.3989,-9 l -0.9635,-6.28536 -2.159,4.5 c -2.5475,5.30989 -2.8255,11.6661 -0.6462,14.77749 1.5817,2.25824 4.4433,3.04556 4.4433,1.22251 z m -11.2927,-8.23834 c -0.2392,-1.24391 -0.444,-0.46166 -0.4551,1.73834 -0.011,2.2 0.1846,3.21775 0.4349,2.26166 0.2503,-0.95609 0.2594,-2.75609 0.02,-4 z m 20.40252,-3.79611 c -0.78447,-1.9632 -0.91379,-1.34493 -0.63468,3.03445 0.43243,6.78502 0.74918,7.54227 1.24048,2.96555 0.20867,-1.94394 -0.0639,-4.64394 -0.6058,-6 z m 99.57329,-3.15305 c -0.31922,-0.79773 -0.55618,-0.56078 -0.60416,0.60417 -0.0434,1.05416 0.19293,1.64479 0.52522,1.3125 0.33229,-0.3323 0.36781,-1.1948 0.0789,-1.91667 z m 12.56689,-17.03335 c 2.23737,-2.27463 0.88788,-2.26345 -1.75,0.0145 -3.30481,2.85388 -8.5,9.19931 -8.5,10.38194 0,0.60829 1.9125,-1.08175 4.25,-3.75565 2.3375,-2.6739 5.0375,-5.66226 6,-6.64079 z m -623.25,36.59052 c -10.9292,-1.3774 -33.0579,-6.76872 -45.405,-11.06218 -12.194,-4.24026 -17.9831,-7.87506 -27.7207,-17.40489 -13.874,-13.57786 -18.832,-25.38342 -18.8595,-44.90578 -0.028,-20.09698 7.9165,-39.06795 23.2771,-55.58209 6.9249,-7.44496 13.5516,-12.06189 40.7081,-28.3622 10.1441,-6.08884 28.6417,-10.19069 45.9862,-10.19744 10.4324,-0.004 17.8033,0.866 31.1866,3.68127 3.8269,0.805 7.0499,1.46364 7.1622,1.46364 0.1124,0 2.8955,-2.02943 6.1847,-4.50985 7.3876,-5.5711 13.4972,-7.49015 23.8461,-7.49015 12.7263,0 20.4241,5.00815 18.0545,11.74619 -2.3256,6.61288 -13.6003,9.41986 -29.237,7.27891 -11.1802,-1.53078 -12.1833,-1.12151 -12.1833,4.97086 0,5.79225 1.7747,8.00404 6.4222,8.00404 7.474,0 11.7263,3.45148 8.3778,6.8 -2.0283,2.02834 -10.9119,1.43723 -15.7802,-1.05 -5.9872,-3.05889 -8.5887,-8.15987 -8.3199,-16.31342 l 0.1998,-6.06342 -7.1998,-1.19512 c -31.7742,-5.27426 -55.5225,-0.52896 -78.1999,15.62557 -19.1691,13.65539 -33.6915,34.18582 -38.055,53.79878 -2.5031,11.2512 -1.5644,30.25657 1.9623,39.72588 6.4308,17.26745 18.6715,30.53174 36.0927,39.11082 13.3132,6.55612 20.891,8.08044 39.5,7.94566 22.9569,-0.16627 50.1149,-4.07594 82.5,-11.87675 25.4821,-6.13804 31.7245,-7.7453 57.5,-14.80479 47.493,-13.00755 75.1863,-18.28644 101.5,-19.34789 17.1283,-0.69092 28.7234,0.44301 42.6211,4.16812 5.1584,1.38265 13.6135,3.41262 18.7891,4.51105 16.4095,3.48263 24.98,8.6501 28.5525,17.21551 1.9758,4.73694 0.2041,4.95733 -2.0286,0.25234 -1.9338,-4.07508 -9.3906,-9.87007 -15.4528,-12.00893 -2.328,-0.82138 -4.5796,-1.49341 -5.0036,-1.49341 -0.4239,0 2.3351,3.10587 6.1311,6.90194 4.4896,4.48954 7.1185,7.98479 7.5216,10 0.3408,1.70393 1.0133,3.09806 1.4946,3.09806 1.1489,0 1.1372,6.71993 -0.013,7.43077 -0.4884,0.30185 -1.1841,-1.42568 -1.546,-3.83894 -1.3112,-8.74397 -10.9393,-19.16163 -22.4444,-24.28506 -19.1259,-8.5171 -56.3939,-3.92961 -119.6216,14.72477 -59.284,17.49083 -94.1107,22.89936 -151,23.45009 -18.7,0.18103 -35.575,0.13065 -37.5,-0.11196 z m 70,-3.46736 c 32.7233,-2.60375 69.9456,-10.01863 117.7009,-23.44669 40.7147,-11.44833 70.8537,-17.42054 88.0491,-17.44742 7.9319,-0.0124 6.2906,-1.62677 -2.4009,-2.36146 -26.5021,-2.24026 -45.3965,0.85457 -120.3491,19.71267 -61.8092,15.55122 -72.7795,18.05531 -92.5,21.11416 -23.2415,3.60498 -26.5621,4.57306 -13.5,3.9357 5.775,-0.28179 16.125,-0.95992 23,-1.50696 z m -107.0198,-7.65231 c -0.011,-0.4125 -2.2467,-2.0719 -4.9683,-3.68756 -11.6727,-6.92931 -25.0282,-23.60741 -29.4435,-36.76854 -9.9225,-29.57682 -3.1371,-58.45252 19.2808,-82.05129 6.3596,-6.69453 6.2114,-8.67204 -0.2529,-3.37504 -15.1554,12.4187 -22.0634,21.23345 -28.6946,36.61453 -5.1276,11.89366 -5.8482,15.40768 -5.8773,28.66256 -0.042,19.27037 5.6651,32.15832 19.7939,44.69744 7.2281,6.41485 11.543,9.15141 20.8054,13.19501 8.2704,3.6105 9.3888,3.93479 9.3565,2.71289 z m 132.4714,-148.66534 c 2.9129,-1.21709 5.5484,-4.08305 5.5484,-6.03362 0,-1.49204 -6.9005,-4.54396 -10.2815,-4.5473 -7.6953,-0.008 -23.2387,6.87611 -20.8714,9.24332 2.3998,2.39982 20.766,3.35928 25.6045,1.3376 z m 243.5484,144.03201 c 0,-2.58736 0.3951,-3.64858 1.25,-3.35705 1.3616,0.46433 1.1334,4.66184 -0.3365,6.19038 -0.5578,0.58007 -0.9135,-0.52321 -0.9135,-2.83333 z"
       style="fill:#000000" />
  </g>
</svg>
